<svg width="155" height="25" viewBox="0 0 155 25" fill="none" xmlns="http://www.w3.org/2000/svg">
<path d="M0.36 24L10.32 1.05H10.56L20.52 24H15.48L9.12 7.86L12.27 5.7L4.65 24H0.36ZM7.17 16.02H13.8L15.33 19.68H5.82L7.17 16.02ZM23.0487 0.329999H27.2487V24H23.0487V0.329999ZM35.8041 24.63C34.6241 24.63 33.6341 24.27 32.8341 23.55C32.0341 22.81 31.6141 21.86 31.5741 20.7V10.89H35.7741V19.14C35.8141 19.72 35.9641 20.19 36.2241 20.55C36.4841 20.89 36.9241 21.06 37.5441 21.06C38.1641 21.06 38.6941 20.85 39.1341 20.43C39.5941 20.01 39.9441 19.44 40.1841 18.72C40.4441 17.98 40.5741 17.15 40.5741 16.23V10.89H44.7741V24H40.9641L40.6341 21.6L40.6941 21.87C40.3941 22.41 40.0141 22.89 39.5541 23.31C39.0941 23.73 38.5441 24.05 37.9041 24.27C37.2841 24.51 36.5841 24.63 35.8041 24.63ZM52.8736 10.89L53.2636 14.49L53.1736 13.95C53.5536 13.17 54.0736 12.51 54.7336 11.97C55.3936 11.41 56.0436 10.98 56.6836 10.68C57.3436 10.38 57.8436 10.23 58.1836 10.23L57.9736 14.43C56.9936 14.31 56.1536 14.47 55.4536 14.91C54.7536 15.35 54.2136 15.93 53.8336 16.65C53.4536 17.37 53.2636 18.11 53.2636 18.87V24H49.0936V10.89H52.8736ZM66.4788 24.36C65.2588 24.36 64.1488 24.12 63.1488 23.64C62.1688 23.14 61.3888 22.38 60.8088 21.36C60.2288 20.34 59.9388 19.04 59.9388 17.46C59.9388 15.98 60.2388 14.7 60.8388 13.62C61.4388 12.54 62.2288 11.71 63.2088 11.13C64.1888 10.53 65.2288 10.23 66.3288 10.23C67.6288 10.23 68.6088 10.45 69.2688 10.89C69.9488 11.31 70.5088 11.78 70.9488 12.3L70.7688 12.81L71.1588 10.89H75.0588V24H70.8588V21.15L71.1888 22.05C71.1488 22.05 71.0288 22.17 70.8288 22.41C70.6288 22.63 70.3288 22.9 69.9288 23.22C69.5488 23.52 69.0688 23.78 68.4888 24C67.9288 24.24 67.2588 24.36 66.4788 24.36ZM67.6788 20.94C68.1788 20.94 68.6288 20.87 69.0288 20.73C69.4288 20.57 69.7788 20.35 70.0788 20.07C70.3788 19.77 70.6388 19.4 70.8588 18.96V15.75C70.6988 15.31 70.4588 14.94 70.1388 14.64C69.8188 14.32 69.4388 14.08 68.9988 13.92C68.5588 13.74 68.0688 13.65 67.5288 13.65C66.9288 13.65 66.3688 13.81 65.8488 14.13C65.3488 14.43 64.9488 14.85 64.6488 15.39C64.3488 15.93 64.1988 16.55 64.1988 17.25C64.1988 17.95 64.3588 18.58 64.6788 19.14C64.9988 19.7 65.4188 20.14 65.9388 20.46C66.4788 20.78 67.0588 20.94 67.6788 20.94ZM85.9266 2.31C88.1066 2.31 89.8166 2.76 91.0566 3.66C92.3166 4.54 92.9466 5.92 92.9466 7.8C92.9466 8.94 92.6866 9.93 92.1666 10.77C91.6466 11.61 90.9166 12.27 89.9766 12.75C89.0566 13.23 87.9666 13.5 86.7066 13.56L86.2866 12.06C87.7466 12.1 89.0566 12.36 90.2166 12.84C91.3766 13.32 92.2966 13.99 92.9766 14.85C93.6566 15.71 93.9966 16.73 93.9966 17.91C93.9966 18.99 93.7966 19.92 93.3966 20.7C92.9966 21.46 92.4566 22.09 91.7766 22.59C91.0966 23.07 90.3266 23.43 89.4666 23.67C88.6066 23.89 87.7166 24 86.7966 24H80.3466V2.31H85.9266ZM86.5266 11.82C87.7266 11.82 88.5966 11.49 89.1366 10.83C89.6766 10.15 89.9466 9.33 89.9466 8.37C89.9466 7.23 89.5966 6.4 88.8966 5.88C88.1966 5.36 87.2566 5.1 86.0766 5.1H83.2566V11.82H86.5266ZM86.6466 21.3C87.4466 21.3 88.1766 21.18 88.8366 20.94C89.5166 20.7 90.0466 20.33 90.4266 19.83C90.8266 19.33 91.0266 18.7 91.0266 17.94C91.0266 17.1 90.7966 16.44 90.3366 15.96C89.8966 15.48 89.3266 15.14 88.6266 14.94C87.9266 14.72 87.2066 14.61 86.4666 14.61H83.2566V21.3H86.6466ZM97.1215 17.67C97.1215 16.43 97.4115 15.31 97.9915 14.31C98.5915 13.31 99.4115 12.52 100.451 11.94C101.491 11.36 102.671 11.07 103.991 11.07C105.351 11.07 106.541 11.36 107.561 11.94C108.581 12.52 109.371 13.31 109.931 14.31C110.491 15.31 110.771 16.43 110.771 17.67C110.771 18.91 110.491 20.04 109.931 21.06C109.371 22.06 108.571 22.85 107.531 23.43C106.511 24.01 105.321 24.3 103.961 24.3C102.641 24.3 101.461 24.03 100.421 23.49C99.4015 22.93 98.5915 22.16 97.9915 21.18C97.4115 20.18 97.1215 19.01 97.1215 17.67ZM99.9115 17.7C99.9115 18.5 100.091 19.23 100.451 19.89C100.811 20.53 101.291 21.04 101.891 21.42C102.511 21.8 103.191 21.99 103.931 21.99C104.711 21.99 105.401 21.8 106.001 21.42C106.621 21.04 107.101 20.53 107.441 19.89C107.781 19.23 107.951 18.5 107.951 17.7C107.951 16.9 107.781 16.18 107.441 15.54C107.101 14.88 106.621 14.36 106.001 13.98C105.401 13.58 104.711 13.38 103.931 13.38C103.171 13.38 102.481 13.58 101.861 13.98C101.261 14.38 100.781 14.91 100.421 15.57C100.081 16.21 99.9115 16.92 99.9115 17.7ZM113.469 17.67C113.469 16.43 113.759 15.31 114.339 14.31C114.939 13.31 115.759 12.52 116.799 11.94C117.839 11.36 119.019 11.07 120.339 11.07C121.699 11.07 122.889 11.36 123.909 11.94C124.929 12.52 125.719 13.31 126.279 14.31C126.839 15.31 127.119 16.43 127.119 17.67C127.119 18.91 126.839 20.04 126.279 21.06C125.719 22.06 124.919 22.85 123.879 23.43C122.859 24.01 121.669 24.3 120.309 24.3C118.989 24.3 117.809 24.03 116.769 23.49C115.749 22.93 114.939 22.16 114.339 21.18C113.759 20.18 113.469 19.01 113.469 17.67ZM116.259 17.7C116.259 18.5 116.439 19.23 116.799 19.89C117.159 20.53 117.639 21.04 118.239 21.42C118.859 21.8 119.539 21.99 120.279 21.99C121.059 21.99 121.749 21.8 122.349 21.42C122.969 21.04 123.449 20.53 123.789 19.89C124.129 19.23 124.299 18.5 124.299 17.7C124.299 16.9 124.129 16.18 123.789 15.54C123.449 14.88 122.969 14.36 122.349 13.98C121.749 13.58 121.059 13.38 120.279 13.38C119.519 13.38 118.829 13.58 118.209 13.98C117.609 14.38 117.129 14.91 116.769 15.57C116.429 16.21 116.259 16.92 116.259 17.7ZM130.897 24V0.779999H133.687V24H130.897ZM136.687 15.75L142.387 24H139.117L134.827 17.31L136.687 15.75ZM132.817 20.04L132.547 17.37L140.077 11.31L141.787 12.78L132.817 20.04ZM149.318 24.24C148.438 24.24 147.578 24.09 146.738 23.79C145.918 23.47 145.238 23 144.698 22.38L145.868 20.76C146.388 21.26 146.918 21.64 147.458 21.9C148.018 22.14 148.568 22.26 149.108 22.26C149.508 22.26 149.878 22.21 150.218 22.11C150.558 22.01 150.828 21.85 151.028 21.63C151.248 21.39 151.358 21.07 151.358 20.67C151.358 20.23 151.208 19.88 150.908 19.62C150.628 19.36 150.258 19.15 149.798 18.99C149.358 18.83 148.888 18.68 148.388 18.54C147.368 18.2 146.588 17.73 146.048 17.13C145.508 16.53 145.238 15.8 145.238 14.94C145.238 14.28 145.398 13.67 145.718 13.11C146.058 12.53 146.548 12.06 147.188 11.7C147.848 11.34 148.658 11.16 149.618 11.16C150.478 11.16 151.248 11.27 151.928 11.49C152.608 11.69 153.248 12.03 153.848 12.51L152.738 14.25C152.378 13.87 151.948 13.59 151.448 13.41C150.948 13.23 150.498 13.13 150.098 13.11C149.758 13.09 149.428 13.14 149.108 13.26C148.808 13.38 148.558 13.55 148.358 13.77C148.158 13.99 148.058 14.25 148.058 14.55C148.058 14.97 148.198 15.31 148.478 15.57C148.758 15.83 149.118 16.04 149.558 16.2C150.018 16.34 150.468 16.49 150.908 16.65C151.528 16.83 152.078 17.07 152.558 17.37C153.038 17.67 153.418 18.04 153.698 18.48C153.998 18.92 154.148 19.47 154.148 20.13C154.148 20.87 153.968 21.56 153.608 22.2C153.268 22.82 152.738 23.32 152.018 23.7C151.318 24.06 150.418 24.24 149.318 24.24Z" fill="black"/>
</svg>
